<svg width="313" height="63" viewBox="0 0 313 63" fill="none" xmlns="http://www.w3.org/2000/svg">
<path d="M27.7387 39.7527C28.1308 39.7076 28.3436 40.1026 28.5599 40.3599C29.2678 41.1986 29.8205 42.1526 30.3884 43.1254C30.5526 43.4065 30.7177 43.6893 30.8873 43.9717C31.608 44.993 32.2309 45.9453 32.7741 46.9664C33.2248 47.8018 33.6615 48.4294 34.2901 49.0952C34.939 49.7886 35.1598 50.4487 35.2488 51.3058C35.2555 51.6898 35.2836 52.0095 35.105 52.3031C34.9489 52.5596 34.6495 52.7808 34.1566 53.0443C31.338 54.5564 30.0463 55.5745 29.6292 56.055C27.9437 58.0008 27.1628 58.181 25.9845 58.2333L25.4275 58.2339C25.1414 58.2345 25.0016 58.2366 24.8619 58.2458C24.7252 57.8275 25.1903 57.1447 25.5798 56.365L25.8253 55.8742C26.5011 54.5185 27.1939 52.973 27.1939 51.6078L27.1941 50.8202C27.1895 48.0769 27.0475 47.4347 25.0774 45.7397C24.674 45.3931 24.2345 45.1283 23.7957 44.8682C23.6057 44.7556 23.4157 44.6442 23.2313 44.5231C23.4787 44.1161 23.6612 43.9183 23.7871 43.6893C24.0742 43.1672 24.1518 42.521 24.1905 41.8765C24.2332 41.2382 24.5496 40.8633 25.049 40.5912C25.8943 40.1235 26.8034 39.8658 27.7387 39.7527ZM36.376 39.097C37.1729 38.6272 37.8584 38.7217 38.5244 38.9094C40.2816 39.4039 42.0734 39.6294 43.8871 39.8106C44.1799 39.8397 44.4279 39.9449 44.6262 40.1055C44.8564 40.2919 45.0198 40.548 45.1219 40.8304C45.3499 41.4604 45.2862 42.2336 44.8695 42.7897C43.4588 44.6864 41.7442 46.2134 39.5067 47.0857C38.6466 47.4218 37.7631 47.2076 36.9293 46.7686C35.6165 46.0772 34.41 44.8185 33.5091 43.7028C32.6898 42.6928 32.035 41.938 31.8235 40.9192C33.086 40.4769 34.1503 40.0307 35.2307 39.5707C35.6084 39.4099 35.9884 39.248 36.376 39.097ZM27.5265 8.14911C28.4325 8.36028 29.4387 9.18838 29.8532 9.73976C30.8921 11.1328 31.7117 15.6571 31.6257 17.3974C31.0517 18.3856 30.8806 18.7365 30.8724 19.1677C31.6031 20.0235 31.9581 20.097 32.305 20.0819C32.6628 20.0662 33.0132 19.955 33.324 19.7626C33.8982 19.4071 34.3379 18.7714 34.4158 17.9882C34.5035 17.1008 34.3047 16.2622 34.0913 15.4258C34.0451 15.2448 33.9989 15.0639 33.9548 14.8739C33.8038 14.2563 33.7131 13.8927 33.6596 13.5247C33.6235 13.2647 33.9493 12.9576 34.2124 12.6944C34.5396 12.3673 34.943 12.026 35.2499 12.0279C35.6138 12.0402 35.948 12.1645 36.2594 12.3112C37.6113 12.9551 38.8884 13.7207 39.935 14.8202C40.2315 15.1331 40.2851 15.5008 40.2303 15.8802C40.131 16.5684 39.7344 17.2934 39.3501 17.972L39.2072 18.2241L38.9113 18.7466C38.4803 18.8896 38.047 19.0913 37.6079 19.3607C35.983 20.3572 35.2189 21.7014 34.8377 23.3522C34.7694 23.6499 34.7048 23.9479 34.6403 24.246C34.4026 25.3436 34.1684 26.4447 33.7309 27.4887C33.521 27.9879 33.2503 28.3743 32.8822 28.6188C32.5329 28.8509 32.1029 28.9458 31.5915 28.9277C31.1645 28.9128 30.7305 28.9058 30.2965 28.9282C28.9915 29.0092 27.845 29.3326 27.127 30.5869C26.7863 31.182 26.2659 31.5402 25.5857 31.6675C24.9562 31.7871 24.2544 31.8737 23.8202 33.6974C23.7501 33.9919 23.7066 34.249 23.6852 34.4749C23.9143 34.5247 24.1634 34.5701 24.4346 34.6122C25.7103 34.8106 26.5412 34.7932 27.1862 34.5021C27.8393 34.2074 28.3496 33.6397 29.0654 32.2387C29.5434 31.6496 30.0849 31.1623 30.7116 30.8982C31.2188 30.6844 31.7808 30.6269 32.4045 30.7752C33.3782 31.0078 34.3181 30.7914 35.072 30.2935C35.8624 29.7716 36.4427 28.9375 36.638 28.0028C36.7335 27.5525 36.8166 27.1032 36.9064 26.617C36.9484 26.3899 36.9918 26.1545 37.0457 25.865C37.2917 24.0037 37.6339 22.1652 38.6523 20.3701C38.8305 20.056 39.0205 19.7589 39.2205 19.4764L39.9992 19.3302C40.5094 19.2339 41.0326 19.2078 41.5263 19.3422C42.0454 19.4835 42.5249 19.8023 42.9866 20.2517C44.8965 22.1231 46.071 24.467 47.066 26.9129C47.5187 28.0248 47.8958 29.1627 48.0357 30.3764C48.0764 30.7277 48.1023 31.0168 47.9518 31.1925C47.8092 31.3589 47.5396 31.363 47.2189 31.363C46.8217 31.363 46.4767 31.2988 46.2036 31.1142C45.9583 30.9484 45.7845 30.6868 45.6604 30.331C45.2723 29.2384 44.8843 28.1457 44.4821 27.0602C44.2886 26.5379 44.0724 26.0277 43.7342 25.5712C43.4349 25.1673 43.0958 24.9276 42.7426 24.8474C42.3926 24.768 41.9897 24.8084 41.5257 25.1506C41.008 25.5323 40.8019 25.889 40.7471 26.2274C40.6907 26.5761 40.7682 26.979 41.1873 27.4907C41.6139 28.0101 42.0726 28.5011 42.5307 28.9907C42.679 29.1492 42.8273 29.3076 42.9732 29.466C43.2151 29.7292 43.5047 29.9231 43.4637 30.1207C43.4277 30.2946 43.1539 30.3596 42.8683 30.4703L42.7611 30.5142L41.5669 31.0358L42.6177 31.8063C43.3626 32.3526 44.3799 32.685 45.4027 33.0017C46.1903 33.2429 46.928 33.5541 47.5998 33.9986C47.9482 34.2294 48.1916 34.4758 48.2412 34.778C48.2919 35.0865 48.1372 35.4074 47.8748 35.7547C47.4946 36.2697 47.0007 36.6003 46.379 36.8123C45.453 37.0457 44.5702 36.9721 43.6898 36.8027C42.3432 36.5408 41.0689 36.0993 39.874 35.414C39.3191 35.0964 38.8912 34.7158 38.6211 34.2405C38.3663 33.7922 38.2577 33.2641 38.2881 32.6416C38.3013 32.3135 38.2816 31.9854 38.2608 31.6622C38.2451 31.4181 38.2284 31.1713 38.1973 30.9256C37.9769 30.9037 37.7108 30.9156 37.3859 30.9711C35.9072 31.2241 35.8782 31.9273 35.8228 32.5953C35.6404 34.0667 35.2798 34.9395 34.6697 35.5813C34.0405 36.2434 33.1682 36.6562 32.0987 36.8752C30.9002 37.1193 29.6998 37.3402 28.4995 37.5611C27.3895 37.7654 26.2796 37.9698 25.1711 38.1921C24.5133 38.3243 23.9383 38.1014 23.3587 37.9089C23.1806 37.8498 23.002 37.7906 22.8216 37.7369C22.1492 37.4972 21.7449 37.4713 21.2392 37.85C21.0804 37.9689 20.9628 38.0894 20.8774 38.2209C21.0626 39.0464 21.2209 39.4468 21.3825 39.8489C21.5389 40.2378 21.7007 40.6283 21.7826 41.0496C21.9098 41.7061 21.8942 42.2393 21.6183 42.6114C21.3428 42.9828 20.8393 43.1498 20.1794 43.2154C19.4412 43.2887 18.7292 43.2327 18.0029 43.1793C17.5352 43.1458 17.0719 43.0555 16.6961 42.7743C15.352 41.7824 14.0289 40.7691 12.7181 39.7333C12.6393 39.4753 12.7053 39.2823 12.7537 39.1016C13.0083 38.1592 13.4129 37.279 13.8348 36.4114C14.1388 35.8229 14.2608 35.5809 14.3497 35.3267C14.8436 33.8945 15.6318 32.8868 16.6306 32.1871C17.8477 31.3344 19.3612 30.9315 20.998 30.7356C22.9505 30.4994 24.6858 29.8551 25.9891 28.4495C26.563 27.8289 27.1501 27.4026 27.8067 27.2075C28.43 27.0223 29.1082 27.052 29.8765 27.2783C30.7026 27.5219 31.2831 27.3992 31.669 27.1376C32.1102 26.8385 32.4004 26.3086 32.35 25.4918C32.3183 24.9219 32.0991 24.5851 31.8304 24.3904C31.5638 24.1973 31.1842 24.0793 30.6113 24.262C30.4233 24.3206 30.2358 24.3806 30.0483 24.4406C29.2677 24.6905 28.4892 24.9429 27.6746 25.071C27.1761 25.1522 26.6762 25.1734 26.1802 25.0234C25.7564 24.8926 25.4423 24.6162 25.2959 24.2617C25.1495 23.9071 25.1763 23.4879 25.3857 23.0894C25.6037 22.672 25.8999 22.3158 26.2404 22.0121C26.7885 21.535 27.0485 21.3083 27.2819 21.0747C27.784 20.6584 27.9542 20.4548 28.0396 20.2551C28.0967 20.1216 28.1289 19.9595 28.1303 19.6723C26.8815 18.5305 26.488 18.7556 26.2007 18.9552L26.1306 19.0037L26.0964 19.0261C24.9938 19.5677 24.3569 20.144 23.9062 20.8376C23.4308 21.5693 23.1654 22.4439 23.1069 23.4381C23.0407 24.5482 23.0566 25.6582 23.2105 26.7708C23.2694 27.218 23.2595 27.5755 23.0752 27.8322C22.8878 28.0932 22.5462 28.2182 22.1013 28.3092C21.7711 28.3815 21.5968 28.4367 21.4284 28.4243C20.2447 28.3353 19.1183 28.6023 17.9915 28.8822C17.6957 28.9557 17.3997 29.0293 17.1045 29.0944C16.7851 29.1638 16.494 29.2374 16.3357 29.087C16.1753 28.9346 16.2303 28.6351 16.2811 28.3058C16.4667 27.1229 16.7423 25.961 17.0591 24.8038C17.2836 23.9743 17.8047 23.4394 18.5252 23.0437C19.0012 22.7824 19.5025 22.5873 20.0036 22.3902C20.3593 22.2503 20.7152 22.11 21.0622 21.9516C22.1947 21.4395 23.2984 20.5449 24.098 19.4998C24.8826 18.4741 25.3654 17.3083 25.3654 16.2198C25.3654 16.0971 25.344 14.2504 25.2869 13.1683C25.2701 12.8491 25.2432 12.4642 25.2131 12.0771C24.8004 12.1973 24.4133 12.3672 24.0922 12.6046C22.8815 13.4995 22.312 15.5721 22.11 16.4719C22.0541 16.7264 21.9651 16.9753 21.8411 17.2093C21.6114 17.6459 21.2104 18.3108 20.6023 18.61C20.1651 18.8272 19.512 19.292 19.1466 19.6216C17.5524 21.058 16.734 20.9302 15.0262 20.4981C14.8622 20.4569 14.6781 20.4164 14.4827 20.3735C13.801 20.2239 12.9095 20.0855 12.4638 19.6294C11.7752 18.9348 10.9799 18.4667 10.2824 18.2638C9.85554 18.1397 9.45782 18.1122 9.12078 18.1681C8.69243 18.2392 8.34667 18.4383 8.10103 18.7463C7.77807 19.1512 7.58303 19.8084 7.87074 20.8408C8.05082 21.4871 8.43153 22.3141 9.09415 23.3373C9.30115 23.6545 9.63123 24.0882 10.0641 24.342C10.4436 24.5646 10.8928 24.67 11.4159 24.5363C11.8978 24.4114 12.2131 24.1087 12.5181 23.7551C13.3964 23.1251 13.9426 22.8302 14.5482 22.6897C14.5 24.6994 14.0789 26.3153 13.8213 27.9667C13.788 28.1793 13.7555 28.3918 13.723 28.6042C13.5595 29.6723 13.3976 30.7373 13.1372 31.7856C12.5771 34.0802 11.4336 36.042 9.84638 37.7565C9.36281 38.2805 8.80183 38.6206 8.19483 38.7409C7.60091 38.8586 6.97044 38.763 6.34077 38.4585C3.81796 37.2407 2.29609 35.2017 1.73303 32.4373C1.6715 32.1415 1.71218 31.8363 1.79068 31.5289C1.85479 31.2661 1.89067 31.0143 2.05749 30.9423C2.2205 30.872 2.42089 31.0195 2.64506 31.1505C3.3448 31.5613 3.91799 32.1277 4.49416 32.687C4.63636 32.825 4.77851 32.963 4.91333 33.0905C5.05627 33.2304 5.20515 33.3642 5.35834 33.5016C7.11558 33.7583 7.18232 33.1096 7.24101 32.6509C7.29306 32.2443 7.16881 31.8219 6.93186 31.418C6.63261 30.8988 6.16858 30.5287 5.68363 30.1781C5.2058 29.837 4.71123 29.5225 4.21656 29.2083C3.46924 28.7336 2.72073 28.261 2.04277 27.6843C1.31091 27.0566 0.686934 26.3372 0.755322 25.2816C0.814345 24.3436 1.28798 23.5959 1.91078 22.9358C2.38896 23.0957 2.67804 23.2294 2.75638 23.572C2.82344 25.0588 3.03596 25.4732 3.31414 25.795C3.62903 26.1592 4.08894 26.413 4.80112 26.5115C5.54989 26.6144 6.05858 26.972 6.46533 27.6166C7.1374 28.673 7.99834 29.576 9.14392 30.1437C9.57881 30.3584 9.99585 30.435 10.3936 30.3924C10.793 30.3497 11.1823 30.1875 11.5581 29.8722C12.1094 29.4045 12.1886 28.9732 12.14 28.646C10.893 27.5154 10.4989 27.404 10.1031 27.3206C9.36644 27.1642 8.86566 26.7375 8.60282 26.0333C8.26663 25.132 7.67869 24.5402 6.81737 24.1639C6.35086 23.9578 5.89785 23.7044 5.46668 23.4333C4.97105 23.119 4.4341 22.3973 4.04285 21.6384C3.70575 20.9845 3.45135 20.286 3.5332 19.7779C3.72348 18.5922 4.00584 17.8463 4.47995 17.3664C5.2759 16.5607 5.78099 15.9203 6.24498 15.3308C6.88022 14.5237 7.43098 13.8198 8.66452 12.8784C9.47451 12.2605 11.0795 11.4465 11.979 11.665C12.358 11.7572 12.5664 12.1383 12.7355 12.5311C13.1116 13.4047 13.2199 14.5454 13.2427 15.2199C13.2594 15.8997 13.2949 16.7517 13.6078 17.5147C13.7969 17.9773 14.1279 18.2261 14.5281 18.32C14.8461 18.3946 15.2418 18.3597 15.6763 18.1621C16.2544 17.8976 16.5711 17.1037 16.702 16.5561C16.7922 16.2489 16.8544 15.89 16.8997 15.619C17.039 14.9041 17.1128 14.4358 17.1878 13.9598C17.4056 12.5769 17.597 11.0997 18.4468 10.0755C19.4757 8.83087 20.078 8.52616 21.3303 8.12688C23.1362 7.55778 25.5365 7.68069 27.5265 8.14911Z" fill="#66758D"/>
<path d="M74.8008 50.5103C76.9492 50.5103 78.1577 49.436 78.9097 46.8579L80.9507 40.8154H94.9424L96.9834 46.9385C97.7085 49.4629 98.917 50.5103 101.2 50.5103C103.563 50.5103 105.255 48.9258 105.255 46.6968C105.255 45.8911 105.121 45.166 104.745 44.1187L94.1099 15.2759C92.9551 12.1069 91.0752 10.7104 87.9062 10.7104C84.8447 10.7104 82.938 12.1606 81.8101 15.3027L71.229 44.1187C70.8799 45.1123 70.6919 46.0254 70.6919 46.6968C70.6919 49.0332 72.2764 50.5103 74.8008 50.5103ZM82.7231 34.5312L87.7451 18.6597H87.9331L93.0625 34.5312H82.7231ZM109.74 42.6416C109.74 47.7173 112.398 50.3223 117.635 50.3223H117.904C121.207 50.3223 123.463 49.1406 123.463 46.8311C123.463 45.0049 122.416 44.1992 120.482 43.9844L119.972 43.9307C118.28 43.7964 117.582 42.937 117.582 40.896V27.1191H120.348C122.201 27.1191 123.355 25.9644 123.355 24.165C123.355 22.3657 122.201 21.2109 120.348 21.2109H117.582V18.0151C117.582 15.4907 116.104 13.9331 113.661 13.9331C111.217 13.9331 109.74 15.4907 109.74 18.0151V21.2109H108.236C106.383 21.2109 105.201 22.3389 105.201 24.165C105.201 25.9912 106.383 27.1191 108.236 27.1191H109.74V42.6416ZM131.305 50.564C133.614 50.564 135.226 49.1675 135.226 46.4819V33.5645C135.226 29.7778 137.401 27.1729 141.107 27.1729C144.679 27.1729 146.505 29.4287 146.505 33.1348V46.4819C146.505 49.1675 148.143 50.564 150.426 50.564C152.735 50.564 154.347 49.1675 154.347 46.4819V31.4697C154.347 24.8096 150.694 20.6738 144.303 20.6738C139.925 20.6738 136.783 22.7148 135.252 26.3403H135.091V14.6851C135.091 12.1606 133.668 10.6567 131.251 10.6567C128.834 10.6567 127.384 12.1606 127.384 14.6851V46.4819C127.384 49.1675 129.022 50.564 131.305 50.564ZM172.608 50.6177C178.167 50.6177 182.625 48.5229 184.532 44.978C184.881 44.3335 185.069 43.689 185.069 43.0713C185.069 41.272 183.7 40.1978 182.008 40.1978C180.987 40.1978 180.289 40.4932 179.457 41.3525C177.335 43.8501 175.455 44.8169 172.582 44.8169C168.607 44.8169 166.029 42.0239 166.029 37.7539V37.4048H182.464C184.64 37.4048 185.875 36.1694 185.875 33.9941C185.875 26.1792 180.396 20.5933 172.232 20.5933C163.719 20.5933 158.321 26.4746 158.321 35.7397C158.321 45.0586 163.612 50.6177 172.608 50.6177ZM166.109 32.5977C166.378 28.9185 168.875 26.394 172.313 26.394C175.75 26.394 178.167 28.8379 178.329 32.5977H166.109ZM193.851 50.564C196.161 50.564 197.772 49.1675 197.772 46.4819V33.4839C197.772 29.751 200.001 27.1729 203.519 27.1729C207.037 27.1729 208.81 29.3213 208.81 33.0811V46.4819C208.81 49.1675 210.421 50.564 212.73 50.564C215.013 50.564 216.651 49.1675 216.651 46.4819V31.4429C216.651 24.7021 213.053 20.6738 206.661 20.6738C202.23 20.6738 199.33 22.6343 197.799 26.2061H197.638V24.5947C197.638 22.124 196.08 20.6201 193.717 20.6201C191.354 20.6201 189.93 22.124 189.93 24.5679V46.4819C189.93 49.1675 191.568 50.564 193.851 50.564ZM230.133 50.4565C233.731 50.4565 237.33 48.6572 238.941 45.5957H239.103V47.0728C239.264 49.3823 240.741 50.564 242.862 50.564C245.091 50.564 246.676 49.2212 246.676 46.6162V30.2075C246.676 24.4067 241.869 20.5933 234.483 20.5933C228.521 20.5933 223.902 22.7148 222.56 26.1523C222.291 26.7432 222.157 27.3071 222.157 27.9248C222.157 29.6973 223.526 30.9326 225.433 30.9326C226.695 30.9326 227.689 30.4492 228.548 29.4824C230.294 27.2266 231.744 26.4478 234.134 26.4478C237.088 26.4478 238.968 28.0054 238.968 30.6909V32.5977L231.717 33.0273C224.52 33.457 220.492 36.4917 220.492 41.7285C220.492 46.9116 224.654 50.4565 230.133 50.4565ZM232.711 44.79C230.079 44.79 228.307 43.4473 228.307 41.2988C228.307 39.2578 229.972 37.9419 232.899 37.7271L238.968 37.3511V39.4458C238.968 42.561 236.148 44.79 232.711 44.79ZM265.904 50.5103C268.053 50.5103 269.261 49.436 270.013 46.8579L272.054 40.8154H286.046L288.087 46.9385C288.812 49.4629 290.021 50.5103 292.303 50.5103C294.667 50.5103 296.358 48.9258 296.358 46.6968C296.358 45.8911 296.224 45.166 295.848 44.1187L285.213 15.2759C284.059 12.1069 282.179 10.7104 279.01 10.7104C275.948 10.7104 274.042 12.1606 272.914 15.3027L262.333 44.1187C261.983 45.1123 261.795 46.0254 261.795 46.6968C261.795 49.0332 263.38 50.5103 265.904 50.5103ZM273.827 34.5312L278.849 18.6597H279.037L284.166 34.5312H273.827ZM305.355 50.5103C307.906 50.5103 309.41 48.9526 309.41 46.2939V14.9536C309.41 12.2681 307.906 10.7104 305.355 10.7104C302.804 10.7104 301.3 12.2681 301.3 14.9536V46.2939C301.3 48.9526 302.804 50.5103 305.355 50.5103Z" fill="#66758D"/>
</svg>
