<svg width="341" height="65" viewBox="0 0 341 65" fill="none" xmlns="http://www.w3.org/2000/svg">
<g clip-path="url(#clip0_50_2)">
<path d="M46.5928 37.5318C45.5446 37.8023 44.5456 37.7311 43.5467 37.5389C42.1185 37.2612 40.7678 36.7912 39.5015 36.0649C38.1578 35.2959 37.4613 34.1922 37.5387 32.6114C37.5528 32.2625 37.5247 31.9136 37.5036 31.5718C37.4965 31.3867 37.4684 31.1731 37.2503 31.1232C36.997 31.0734 36.8915 31.287 36.8071 31.4792C36.5749 31.999 36.596 32.5687 36.5257 33.1099C36.188 35.6875 34.6825 37.1116 32.2484 37.6101C29.9409 38.08 27.6264 38.4646 25.3189 38.9274C24.3269 39.1268 23.4827 38.7138 22.5893 38.4503C22.3149 38.3649 22.0405 38.1869 21.6888 38.4503C21.8928 39.2834 22.3501 40.0382 22.5189 40.9069C22.8777 42.7583 22.1179 43.7765 20.2536 43.9617C19.4657 44.04 18.7059 43.983 17.9321 43.9261C17.3341 43.8833 16.7361 43.7409 16.2507 43.3778C14.9 42.3809 13.5704 41.3626 12.2548 40.323C11.7835 39.9528 11.896 39.4045 12.0297 38.906C12.297 37.9163 12.7191 36.9906 13.1623 36.0792C13.3241 35.7445 13.5211 35.4241 13.6407 35.0823C14.8437 31.5932 17.6366 30.3827 20.9079 29.991C22.6737 29.7774 24.2566 29.2149 25.4385 27.9403C26.7751 26.4948 28.2032 26.0035 30.0886 26.5589C31.1509 26.8722 31.6574 26.445 31.6012 25.5335C31.573 25.028 31.3479 24.8143 30.8343 24.9781C29.8283 25.2914 28.8364 25.6475 27.7952 25.8112C27.1832 25.9109 26.5711 25.9252 25.9591 25.74C24.6435 25.3341 24.0737 23.9741 24.7209 22.7422C24.9812 22.2438 25.3329 21.8166 25.748 21.4463C26.0927 21.1401 26.4515 20.8482 26.7751 20.5206C27.0284 20.2643 27.5842 20.0151 27.2957 19.6163C27.0284 19.2389 26.5711 19.6448 26.2475 19.8014C24.7068 20.5206 23.9541 21.8094 23.8556 23.4828C23.7923 24.5438 23.8063 25.6047 23.9541 26.6728C24.137 28.0613 23.6094 28.7663 22.2516 29.044C21.9632 29.101 21.6607 29.1935 21.3722 29.1722C19.9511 29.0653 18.6215 29.5282 17.2638 29.8273C15.9201 30.1192 15.3291 29.5567 15.5402 28.1895C15.7301 26.979 16.0115 25.7899 16.3351 24.6078C16.6165 23.5682 17.2567 22.8847 18.1642 22.3862C18.9944 21.9305 19.8949 21.6599 20.7531 21.2683C22.737 20.3711 24.6154 18.1708 24.6154 16.2198C24.6154 16.0987 24.5943 14.2758 24.538 13.2077C24.5239 12.9016 24.1229 12.809 23.9752 13.0725C23.4687 13.9981 23.0184 15.8495 22.8425 16.6328C22.7722 16.9532 22.6596 17.2665 22.5049 17.5584C22.2164 18.1067 21.6888 18.9114 20.936 19.2816C20.5491 19.4739 19.9722 19.8869 19.6486 20.1788C17.7914 21.8522 16.8417 21.7311 14.8437 21.2256C13.9925 21.0119 12.5784 20.8197 11.9312 20.1575C9.8629 18.0711 6.7112 18.2776 9.7222 22.9274C9.98249 23.3261 10.4749 24.0026 11.2277 23.8103C11.8046 23.6608 11.9734 23.0627 12.494 22.7707C13.092 22.4361 13.704 22.1156 14.3794 21.959C15.4276 21.7169 15.9552 22.2296 15.6668 23.2905C15.2306 24.8713 14.8156 26.4592 14.5623 28.0827C14.3583 29.3858 14.1824 30.6889 13.8658 31.9634C13.2749 34.3844 12.0719 36.4565 10.3976 38.2652C9.20161 39.5611 7.60465 39.9029 6.01473 39.1339C3.27107 37.8095 1.6108 35.595 0.998754 32.5901C0.914333 32.1842 0.956544 31.7641 1.06207 31.3511C1.35051 30.169 1.97662 29.8913 3.02484 30.5037C3.94643 31.0449 4.67104 31.8281 5.43786 32.5545C5.64891 32.7609 5.87403 32.9532 6.10619 33.1668C6.66196 32.7253 6.5494 32.2483 6.28207 31.7925C6.03584 31.3653 5.64188 31.0734 5.24792 30.7885C4.03085 29.9198 2.70123 29.2291 1.55452 28.2536C0.632932 27.4632 -0.0776066 26.5375 0.00681382 25.2345C0.0771642 24.1165 0.618862 23.2122 1.36458 22.4218C1.64598 22.1228 2.00476 22.1299 2.38466 22.2794C2.94042 22.5144 3.39067 22.8348 3.50323 23.4828C3.54544 23.7106 3.5173 23.9456 3.52433 24.1735C3.58061 25.1561 3.92533 25.6332 4.9032 25.7685C5.8881 25.9038 6.56347 26.3666 7.09813 27.214C7.69611 28.1539 8.45589 28.9657 9.47597 29.4712C10.0528 29.7561 10.5805 29.7133 11.0729 29.3003C11.5513 28.8945 11.5091 28.574 10.9322 28.3533C10.6156 28.2322 10.285 28.1254 9.94732 28.0542C8.94131 27.8406 8.25891 27.2567 7.90012 26.2954C7.63983 25.5976 7.18255 25.1419 6.51422 24.8499C6.01473 24.6292 5.52932 24.3586 5.065 24.0667C3.95347 23.3617 2.58164 20.9692 2.79269 19.659C3.01781 18.2563 3.39067 17.4018 3.94643 16.8393C5.867 14.8953 6.03584 13.9412 8.20967 12.2821C9.1805 11.5415 11.1011 10.6799 12.1563 10.9363C13.6196 11.2923 13.9503 13.9483 13.9925 15.2015C14.0065 15.6216 13.9925 16.4761 14.302 17.2309C14.4708 17.6439 14.8789 17.7009 15.3643 17.4801C15.8779 17.2451 15.9552 16.3195 16.0397 16.1343C16.0748 16.0489 16.1874 15.3083 16.2085 15.2158C16.5954 13.3573 16.6517 11.0644 17.8688 9.59759C19.0225 8.20195 19.6979 7.86016 21.1049 7.41156C23.0255 6.80631 25.5792 6.92024 27.6967 7.41868C28.766 7.66791 29.962 8.63631 30.4545 9.29141C31.559 10.7725 32.4665 15.5789 32.375 17.4303C32.3609 17.7507 32.1991 17.9999 32.0373 18.2491C31.8544 18.5411 31.6293 18.8117 31.6223 19.1819C32.4946 19.6519 33.5639 18.9754 33.6695 17.9145C33.768 16.9176 33.4443 15.9919 33.2263 15.052C33.1137 14.582 32.9871 14.1121 32.9167 13.6279C32.7971 12.7663 34.4011 11.2638 35.2664 11.2781C35.7378 11.2923 36.1739 11.4418 36.582 11.6341C38.0171 12.3177 39.3678 13.1365 40.4794 14.3043C41.6402 15.5291 40.613 17.2594 39.797 18.7049C39.7266 18.8259 39.6703 18.947 39.6211 19.0466C39.6703 19.1677 39.7407 19.1535 39.797 19.1179C41.204 18.2349 42.407 18.6408 43.5115 19.716C45.4954 21.6599 46.7265 24.088 47.7606 26.6301C48.239 27.805 48.633 29.0084 48.7807 30.2901C48.9285 31.5647 48.4641 32.113 47.2189 32.113C46.1144 32.113 45.3336 31.6715 44.9537 30.582C44.5667 29.4926 44.1798 28.4031 43.7788 27.3208C43.61 26.8651 43.4271 26.4165 43.1316 26.0177C42.815 25.5905 42.4633 25.3911 41.9708 25.7543C41.401 26.1744 41.3236 26.4734 41.7668 27.0146C42.3226 27.6911 42.9346 28.3177 43.5255 28.9585C44.5527 30.0765 44.4471 30.5963 43.0612 31.2015C42.9838 31.2371 42.8994 31.2727 42.6813 31.3724C43.7507 31.7071 44.7004 31.999 45.6431 32.291C46.4803 32.5473 47.2823 32.8891 48.0139 33.3733C49.1536 34.1281 49.3013 35.1108 48.4782 36.2002C47.9998 36.8482 47.3807 37.2683 46.5928 37.5318ZM36.3021 25.7667C36.5607 23.8114 36.931 21.8844 38 20C36.5676 20.8785 35.9039 22.0686 35.5685 23.5209C35.2401 24.952 34.9955 26.4113 34.4226 27.7786C33.8776 29.075 32.9623 29.7268 31.5649 29.6772C31.1596 29.663 30.7474 29.656 30.3351 29.6772C29.308 29.741 28.3578 29.9464 27.7779 30.9595C27.3237 31.7529 26.632 32.2347 25.7237 32.4047C25.2765 32.4897 24.8433 32.6385 24.4171 32.7943C24.1446 32.8935 23.9489 33.0989 24.0118 33.4319C24.0677 33.7224 24.2703 33.8286 24.5498 33.8711C26.646 34.197 27.3586 33.9916 28.1761 32.2347C28.253 32.0717 28.3648 31.9159 28.4766 31.7742C29.5456 30.4565 30.8801 29.6418 32.578 30.0456C34.1501 30.4211 35.6034 29.2876 35.9039 27.8495C36.0436 27.1906 36.1554 26.5388 36.3021 25.7667ZM31.8061 39.941C30.9315 40.0973 30.911 40.1993 31.0887 41.0692C31.3483 42.3198 32.1682 43.2305 32.9266 44.1753C34.6006 46.2482 37.2927 48.7562 39.7797 47.7843C42.1507 46.8599 43.975 45.2491 45.4713 43.2373C46.5509 41.7965 45.9428 39.2613 43.9613 39.0642C42.1917 38.8875 40.4425 38.67 38.7275 38.1875C37.8598 37.9428 36.9784 37.868 36.1038 38.3982C34.6553 38.9623 33.3093 39.6759 31.8061 39.941ZM29.133 39.8761C28.7369 39.4051 28.2922 38.934 27.653 39.0076C26.6176 39.1328 25.617 39.4198 24.6859 39.935C23.9563 40.3324 23.5047 40.8917 23.4421 41.8264C23.3865 42.7538 23.2962 43.6958 22.2122 44.0638C21.844 44.1889 22.0177 44.5201 22.2609 44.7336C22.9766 45.3518 23.8521 45.6756 24.5886 46.3086C26.5134 47.9645 26.4439 48.5018 26.4439 51.6076C26.4439 54.132 23.7757 57.2894 24.13 58.4449C24.2551 58.8497 24.4636 59.0263 24.8735 58.9969C25.2557 58.9674 25.6379 59.0042 26.027 58.9821C27.3542 58.9233 28.2644 58.7761 30.1961 56.546C30.5922 56.0897 31.836 55.1403 34.5112 53.7052C35.9843 52.9177 36.0121 52.2847 35.9982 51.3427C35.9982 51.3206 35.9982 51.2838 35.9982 51.2617C35.8939 50.2166 35.6229 49.4218 34.8378 48.5827C34.2541 47.9645 33.8511 47.3831 33.4342 46.6103C32.8783 45.5652 32.239 44.5864 31.5302 43.5854C30.752 42.2901 30.0711 40.9874 29.133 39.8761Z" fill="#66758D"/>
<path d="M74.8008 50.5103C76.9492 50.5103 78.1577 49.436 78.9097 46.8579L80.9507 40.8154H94.9424L96.9834 46.9385C97.7085 49.4629 98.917 50.5103 101.2 50.5103C103.563 50.5103 105.255 48.9258 105.255 46.6968C105.255 45.8911 105.121 45.166 104.745 44.1187L94.1099 15.2759C92.9551 12.1069 91.0752 10.7104 87.9062 10.7104C84.8447 10.7104 82.938 12.1606 81.8101 15.3027L71.229 44.1187C70.8799 45.1123 70.6919 46.0254 70.6919 46.6968C70.6919 49.0332 72.2764 50.5103 74.8008 50.5103ZM82.7231 34.5312L87.7451 18.6597H87.9331L93.0625 34.5312H82.7231ZM109.74 42.6416C109.74 47.7173 112.398 50.3223 117.635 50.3223H117.904C121.207 50.3223 123.463 49.1406 123.463 46.8311C123.463 45.0049 122.416 44.1992 120.482 43.9844L119.972 43.9307C118.28 43.7964 117.582 42.937 117.582 40.896V27.1191H120.348C122.201 27.1191 123.355 25.9644 123.355 24.165C123.355 22.3657 122.201 21.2109 120.348 21.2109H117.582V18.0151C117.582 15.4907 116.104 13.9331 113.661 13.9331C111.217 13.9331 109.74 15.4907 109.74 18.0151V21.2109H108.236C106.383 21.2109 105.201 22.3389 105.201 24.165C105.201 25.9912 106.383 27.1191 108.236 27.1191H109.74V42.6416ZM131.305 50.564C133.614 50.564 135.226 49.1675 135.226 46.4819V33.5645C135.226 29.7778 137.401 27.1729 141.107 27.1729C144.679 27.1729 146.505 29.4287 146.505 33.1348V46.4819C146.505 49.1675 148.143 50.564 150.426 50.564C152.735 50.564 154.347 49.1675 154.347 46.4819V31.4697C154.347 24.8096 150.694 20.6738 144.303 20.6738C139.925 20.6738 136.783 22.7148 135.252 26.3403H135.091V14.6851C135.091 12.1606 133.668 10.6567 131.251 10.6567C128.834 10.6567 127.384 12.1606 127.384 14.6851V46.4819C127.384 49.1675 129.022 50.564 131.305 50.564ZM172.608 50.6177C178.167 50.6177 182.625 48.5229 184.532 44.978C184.881 44.3335 185.069 43.689 185.069 43.0713C185.069 41.272 183.7 40.1978 182.008 40.1978C180.987 40.1978 180.289 40.4932 179.457 41.3525C177.335 43.8501 175.455 44.8169 172.582 44.8169C168.607 44.8169 166.029 42.0239 166.029 37.7539V37.4048H182.464C184.64 37.4048 185.875 36.1694 185.875 33.9941C185.875 26.1792 180.396 20.5933 172.232 20.5933C163.719 20.5933 158.321 26.4746 158.321 35.7397C158.321 45.0586 163.612 50.6177 172.608 50.6177ZM166.109 32.5977C166.378 28.9185 168.875 26.394 172.313 26.394C175.75 26.394 178.167 28.8379 178.329 32.5977H166.109ZM193.851 50.564C196.161 50.564 197.772 49.1675 197.772 46.4819V33.4839C197.772 29.751 200.001 27.1729 203.519 27.1729C207.037 27.1729 208.81 29.3213 208.81 33.0811V46.4819C208.81 49.1675 210.421 50.564 212.73 50.564C215.013 50.564 216.651 49.1675 216.651 46.4819V31.4429C216.651 24.7021 213.053 20.6738 206.661 20.6738C202.23 20.6738 199.33 22.6343 197.799 26.2061H197.638V24.5947C197.638 22.124 196.08 20.6201 193.717 20.6201C191.354 20.6201 189.93 22.124 189.93 24.5679V46.4819C189.93 49.1675 191.568 50.564 193.851 50.564ZM230.133 50.4565C233.731 50.4565 237.33 48.6572 238.941 45.5957H239.103V47.0728C239.264 49.3823 240.741 50.564 242.862 50.564C245.091 50.564 246.676 49.2212 246.676 46.6162V30.2075C246.676 24.4067 241.869 20.5933 234.483 20.5933C228.521 20.5933 223.902 22.7148 222.56 26.1523C222.291 26.7432 222.157 27.3071 222.157 27.9248C222.157 29.6973 223.526 30.9326 225.433 30.9326C226.695 30.9326 227.689 30.4492 228.548 29.4824C230.294 27.2266 231.744 26.4478 234.134 26.4478C237.088 26.4478 238.968 28.0054 238.968 30.6909V32.5977L231.717 33.0273C224.52 33.457 220.492 36.4917 220.492 41.7285C220.492 46.9116 224.654 50.4565 230.133 50.4565ZM232.711 44.79C230.079 44.79 228.307 43.4473 228.307 41.2988C228.307 39.2578 229.972 37.9419 232.899 37.7271L238.968 37.3511V39.4458C238.968 42.561 236.148 44.79 232.711 44.79ZM265.904 50.5103C268.053 50.5103 269.261 49.436 270.013 46.8579L272.054 40.8154H286.046L288.087 46.9385C288.812 49.4629 290.021 50.5103 292.303 50.5103C294.667 50.5103 296.358 48.9258 296.358 46.6968C296.358 45.8911 296.224 45.166 295.848 44.1187L285.213 15.2759C284.059 12.1069 282.179 10.7104 279.01 10.7104C275.948 10.7104 274.042 12.1606 272.914 15.3027L262.333 44.1187C261.983 45.1123 261.795 46.0254 261.795 46.6968C261.795 49.0332 263.38 50.5103 265.904 50.5103ZM273.827 34.5312L278.849 18.6597H279.037L284.166 34.5312H273.827ZM305.355 50.5103C307.906 50.5103 309.41 48.9526 309.41 46.2939V14.9536C309.41 12.2681 307.906 10.7104 305.355 10.7104C302.804 10.7104 301.3 12.2681 301.3 14.9536V46.2939C301.3 48.9526 302.804 50.5103 305.355 50.5103Z" fill="#66758D"/>
</g>
<defs>
<clipPath id="clip0_50_2">
<rect width="341" height="65" fill="white"/>
</clipPath>
</defs>
</svg>
